<svg class="chart" viewBox="0 0 760 436" role="img" aria-labelledby="validation-loss-and-lear-t validation-loss-and-lear-d">
<title id="validation-loss-and-lear-t">Validation loss and learning rate</title>
<desc id="validation-loss-and-lear-d">Two panels sharing the training-token axis. Top: validation loss falls to 3.323 at the end of phase 1, rises to 3.383 after the learning rate is raised again for phase 2, and takes about 520 steps to get back; phase 2 ends at 3.139 and phase 3 restarts again to 3.183. Bottom: the learning rate decays to 3e-5 in phase 1, jumps back to 2e-4 at the start of phase 2, decays to 2e-5, and jumps to 1.5e-4 for phase 3.</desc>
<text class="axis-label" x="44" y="16">validation loss</text>
<line class="grid" x1="44" x2="736" y1="262.0" y2="262.0"/>
<text class="tick" x="36" y="266.0" text-anchor="end">3.1</text>
<line class="grid" x1="44" x2="736" y1="216.4" y2="216.4"/>
<text class="tick" x="36" y="220.4" text-anchor="end">3.2</text>
<line class="grid" x1="44" x2="736" y1="170.8" y2="170.8"/>
<text class="tick" x="36" y="174.8" text-anchor="end">3.3</text>
<line class="grid" x1="44" x2="736" y1="125.2" y2="125.2"/>
<text class="tick" x="36" y="129.2" text-anchor="end">3.4</text>
<line class="grid" x1="44" x2="736" y1="79.6" y2="79.6"/>
<text class="tick" x="36" y="83.6" text-anchor="end">3.5</text>
<line class="grid" x1="44" x2="736" y1="34.0" y2="34.0"/>
<text class="tick" x="36" y="38.0" text-anchor="end">3.6</text>
<path class="debt" d="M267.3,160.5 L288.6,133.3 L310.0,133.1 L331.3,141.9 L352.7,152.0 L374.0,158.7 L378.6,160.5 Z"/>
<line class="ref" x1="267.3" x2="418.6" y1="160.5" y2="160.5"/>
<line class="leader" x1="353.0" y1="138.9" x2="381.0" y2="111.5"/>
<text class="note-strong" x="385.0" y="109.5">Restart cost: about 520 steps</text>
<text class="note" x="385.0" y="125.5">to get back to 3.323</text>
<line class="boundary" x1="267.3" x2="267.3" y1="34" y2="392"/>
<text class="note" x="273.3" y="46" text-anchor="start">phase 2 starts</text>
<line class="boundary" x1="694.1" x2="694.1" y1="34" y2="392"/>
<text class="note" x="688.1" y="46" text-anchor="end">phase 3 starts</text>
<path class="line" d="M53.9,43.6 L75.2,66.3 L96.6,84.7 L117.9,101.3 L139.3,115.9 L160.6,127.6 L181.9,137.9 L203.3,145.6 L224.6,151.7 L246.0,156.5 L267.3,160.5"/>
<path class="line" d="M267.3,160.5 L288.6,133.3 L310.0,133.1 L331.3,141.9 L352.7,152.0 L374.0,158.7 L395.4,166.9 L416.7,175.4 L438.0,184.0 L459.4,192.5 L480.7,198.3 L502.1,205.6 L523.4,212.3 L544.7,218.5 L566.1,224.5 L587.4,229.8 L608.8,233.8 L630.1,237.7 L651.5,240.5 L672.8,242.7 L694.1,244.4"/>
<path class="line line-live" d="M694.1,244.4 L715.5,224.0"/>
<circle class="hit" cx="53.9" cy="43.6" r="8"><title>Step 1000, 0.52B tokens: validation loss 3.5790</title></circle>
<circle class="hit" cx="75.2" cy="66.3" r="8"><title>Step 1100, 0.58B tokens: validation loss 3.5292</title></circle>
<circle class="hit" cx="96.6" cy="84.7" r="8"><title>Step 1200, 0.63B tokens: validation loss 3.4889</title></circle>
<circle class="hit" cx="117.9" cy="101.3" r="8"><title>Step 1300, 0.68B tokens: validation loss 3.4524</title></circle>
<circle class="hit" cx="139.3" cy="115.9" r="8"><title>Step 1400, 0.73B tokens: validation loss 3.4203</title></circle>
<circle class="hit" cx="160.6" cy="127.6" r="8"><title>Step 1500, 0.79B tokens: validation loss 3.3948</title></circle>
<circle class="hit" cx="181.9" cy="137.9" r="8"><title>Step 1600, 0.84B tokens: validation loss 3.3722</title></circle>
<circle class="hit" cx="203.3" cy="145.6" r="8"><title>Step 1700, 0.89B tokens: validation loss 3.3553</title></circle>
<circle class="hit" cx="224.6" cy="151.7" r="8"><title>Step 1800, 0.94B tokens: validation loss 3.3419</title></circle>
<circle class="hit" cx="246.0" cy="156.5" r="8"><title>Step 1900, 1.00B tokens: validation loss 3.3314</title></circle>
<circle class="hit" cx="267.3" cy="160.5" r="8"><title>Step 2000, 1.05B tokens: validation loss 3.3226</title></circle>
<circle class="hit" cx="288.6" cy="133.3" r="8"><title>Step 2100, 1.10B tokens: validation loss 3.3822</title></circle>
<circle class="hit" cx="310.0" cy="133.1" r="8"><title>Step 2200, 1.15B tokens: validation loss 3.3827</title></circle>
<circle class="hit" cx="331.3" cy="141.9" r="8"><title>Step 2300, 1.21B tokens: validation loss 3.3633</title></circle>
<circle class="hit" cx="352.7" cy="152.0" r="8"><title>Step 2400, 1.26B tokens: validation loss 3.3412</title></circle>
<circle class="hit" cx="374.0" cy="158.7" r="8"><title>Step 2500, 1.31B tokens: validation loss 3.3265</title></circle>
<circle class="hit" cx="395.4" cy="166.9" r="8"><title>Step 2600, 1.36B tokens: validation loss 3.3085</title></circle>
<circle class="hit" cx="416.7" cy="175.4" r="8"><title>Step 2700, 1.42B tokens: validation loss 3.2900</title></circle>
<circle class="hit" cx="438.0" cy="184.0" r="8"><title>Step 2800, 1.47B tokens: validation loss 3.2711</title></circle>
<circle class="hit" cx="459.4" cy="192.5" r="8"><title>Step 2900, 1.52B tokens: validation loss 3.2525</title></circle>
<circle class="hit" cx="480.7" cy="198.3" r="8"><title>Step 3000, 1.57B tokens: validation loss 3.2397</title></circle>
<circle class="hit" cx="502.1" cy="205.6" r="8"><title>Step 3100, 1.63B tokens: validation loss 3.2236</title></circle>
<circle class="hit" cx="523.4" cy="212.3" r="8"><title>Step 3200, 1.68B tokens: validation loss 3.2089</title></circle>
<circle class="hit" cx="544.7" cy="218.5" r="8"><title>Step 3300, 1.73B tokens: validation loss 3.1955</title></circle>
<circle class="hit" cx="566.1" cy="224.5" r="8"><title>Step 3400, 1.78B tokens: validation loss 3.1823</title></circle>
<circle class="hit" cx="587.4" cy="229.8" r="8"><title>Step 3500, 1.84B tokens: validation loss 3.1707</title></circle>
<circle class="hit" cx="608.8" cy="233.8" r="8"><title>Step 3600, 1.89B tokens: validation loss 3.1618</title></circle>
<circle class="hit" cx="630.1" cy="237.7" r="8"><title>Step 3700, 1.94B tokens: validation loss 3.1532</title></circle>
<circle class="hit" cx="651.5" cy="240.5" r="8"><title>Step 3800, 1.99B tokens: validation loss 3.1471</title></circle>
<circle class="hit" cx="672.8" cy="242.7" r="8"><title>Step 3900, 2.04B tokens: validation loss 3.1424</title></circle>
<circle class="hit" cx="694.1" cy="244.4" r="8"><title>Step 4000, 2.10B tokens: validation loss 3.1387</title></circle>
<circle class="hit" cx="715.5" cy="224.0" r="8"><title>Step 4100, 2.15B tokens: validation loss 3.1833</title></circle>
<circle class="dot" cx="267.3" cy="160.5" r="4"/>
<text class="value" x="259.3" y="178.5" text-anchor="end">3.323</text>
<circle class="dot" cx="694.1" cy="244.4" r="4"/>
<text class="value" x="702.1" y="262.4" text-anchor="start">3.139</text>
<circle class="dot" cx="715.5" cy="224.0" r="4"/>
<text class="value" x="723.5" y="214.0" text-anchor="start">3.183</text>
<text class="axis-label" x="44" y="302">learning rate</text>
<line class="grid" x1="44" x2="736" y1="392.0" y2="392.0"/>
<text class="tick" x="36" y="396.0" text-anchor="end">0</text>
<line class="grid" x1="44" x2="736" y1="365.3" y2="365.3"/>
<text class="tick" x="36" y="369.3" text-anchor="end">1e-4</text>
<line class="grid" x1="44" x2="736" y1="338.7" y2="338.7"/>
<text class="tick" x="36" y="342.7" text-anchor="end">2e-4</text>
<line class="grid" x1="44" x2="736" y1="312.0" y2="312.0"/>
<text class="tick" x="36" y="316.0" text-anchor="end">3e-4</text>
<path class="line line-thin" d="M45.4,339.2 L47.5,339.8 L49.6,340.5 L51.8,341.1 L53.9,341.7 L56.0,342.3 L58.2,342.9 L60.3,343.6 L62.4,344.2 L64.6,344.8 L66.7,345.4 L68.8,346.1 L71.0,346.7 L73.1,347.3 L75.2,347.9 L77.4,348.6 L79.5,349.2 L81.6,349.8 L83.8,350.4 L85.9,351.1 L88.0,351.7 L90.2,352.3 L92.3,352.9 L94.4,353.6 L96.6,354.2 L98.7,354.8 L100.8,355.4 L103.0,356.0 L105.1,356.6 L107.2,357.3 L109.4,357.9 L111.5,358.5 L113.6,359.1 L115.8,359.7 L117.9,360.3 L120.0,360.8 L122.2,361.4 L124.3,362.0 L126.4,362.6 L128.6,363.2 L130.7,363.7 L132.9,364.3 L135.0,364.8 L137.1,365.4 L139.3,365.9 L141.4,366.5 L143.5,367.0 L145.7,367.6 L147.8,368.1 L149.9,368.6 L152.1,369.1 L154.2,369.6 L156.3,370.1 L158.5,370.6 L160.6,371.1 L162.7,371.6 L164.9,372.0 L167.0,372.5 L169.1,373.0 L171.3,373.4 L173.4,373.9 L175.5,374.3 L177.7,374.7 L179.8,375.1 L181.9,375.5 L184.1,375.9 L186.2,376.3 L188.3,376.7 L190.5,377.1 L192.6,377.5 L194.7,377.8 L196.9,378.2 L199.0,378.5 L201.1,378.8 L203.3,379.1 L205.4,379.5 L207.5,379.8 L209.7,380.0 L211.8,380.3 L213.9,380.6 L216.1,380.9 L218.2,381.1 L220.4,381.4 L222.5,381.6 L224.6,381.8 L226.8,382.0 L228.9,382.2 L231.0,382.4 L233.2,382.6 L235.3,382.8 L237.4,382.9 L239.6,383.1 L241.7,383.2 L243.8,383.3 L246.0,383.4 L248.1,383.5 L250.2,383.6 L252.4,383.7 L254.5,383.8 L256.6,383.9 L258.8,383.9 L260.9,383.9 L263.0,384.0 L265.2,384.0 L267.3,384.0 L269.4,386.7 L271.6,381.3 L273.7,376.0 L275.8,370.7 L278.0,365.3 L280.1,360.0 L282.2,354.7 L284.4,349.3 L286.5,344.0 L288.6,338.7 L290.8,338.7 L292.9,338.7 L295.0,338.7 L297.2,338.7 L299.3,338.7 L301.4,338.8 L303.6,338.8 L305.7,338.9 L307.9,338.9 L310.0,339.0 L312.1,339.1 L314.3,339.1 L316.4,339.2 L318.5,339.3 L320.7,339.4 L322.8,339.5 L324.9,339.6 L327.1,339.7 L329.2,339.8 L331.3,340.0 L333.5,340.1 L335.6,340.2 L337.7,340.4 L339.9,340.5 L342.0,340.7 L344.1,340.8 L346.3,341.0 L348.4,341.2 L350.5,341.4 L352.7,341.5 L354.8,341.7 L356.9,341.9 L359.1,342.1 L361.2,342.3 L363.3,342.6 L365.5,342.8 L367.6,343.0 L369.7,343.2 L371.9,343.5 L374.0,343.7 L376.1,343.9 L378.3,344.2 L380.4,344.5 L382.5,344.7 L384.7,345.0 L386.8,345.3 L388.9,345.5 L391.1,345.8 L393.2,346.1 L395.4,346.4 L397.5,346.7 L399.6,347.0 L401.8,347.3 L403.9,347.6 L406.0,347.9 L408.2,348.2 L410.3,348.5 L412.4,348.9 L414.6,349.2 L416.7,349.5 L418.8,349.8 L421.0,350.2 L423.1,350.5 L425.2,350.9 L427.4,351.2 L429.5,351.6 L431.6,351.9 L433.8,352.3 L435.9,352.6 L438.0,353.0 L440.2,353.4 L442.3,353.7 L444.4,354.1 L446.6,354.5 L448.7,354.8 L450.8,355.2 L453.0,355.6 L455.1,356.0 L457.2,356.4 L459.4,356.7 L461.5,357.1 L463.6,357.5 L465.8,357.9 L467.9,358.3 L470.0,358.7 L472.2,359.1 L474.3,359.5 L476.5,359.9 L478.6,360.3 L480.7,360.6 L482.9,361.0 L485.0,361.4 L487.1,361.8 L489.3,362.2 L491.4,362.6 L493.5,363.0 L495.7,363.4 L497.8,363.8 L499.9,364.2 L502.1,364.6 L504.2,365.0 L506.3,365.4 L508.5,365.8 L510.6,366.2 L512.7,366.6 L514.9,367.0 L517.0,367.4 L519.1,367.7 L521.3,368.1 L523.4,368.5 L525.5,368.9 L527.7,369.3 L529.8,369.7 L531.9,370.0 L534.1,370.4 L536.2,370.8 L538.3,371.2 L540.5,371.5 L542.6,371.9 L544.7,372.3 L546.9,372.6 L549.0,373.0 L551.1,373.3 L553.3,373.7 L555.4,374.1 L557.5,374.4 L559.7,374.7 L561.8,375.1 L564.0,375.4 L566.1,375.8 L568.2,376.1 L570.4,376.4 L572.5,376.7 L574.6,377.1 L576.8,377.4 L578.9,377.7 L581.0,378.0 L583.2,378.3 L585.3,378.6 L587.4,378.9 L589.6,379.2 L591.7,379.5 L593.8,379.7 L596.0,380.0 L598.1,380.3 L600.2,380.6 L602.4,380.8 L604.5,381.1 L606.6,381.3 L608.8,381.6 L610.9,381.8 L613.0,382.1 L615.2,382.3 L617.3,382.5 L619.4,382.7 L621.6,383.0 L623.7,383.2 L625.8,383.4 L628.0,383.6 L630.1,383.8 L632.2,383.9 L634.4,384.1 L636.5,384.3 L638.6,384.5 L640.8,384.6 L642.9,384.8 L645.0,384.9 L647.2,385.1 L649.3,385.2 L651.5,385.4 L653.6,385.5 L655.7,385.6 L657.9,385.7 L660.0,385.8 L662.1,385.9 L664.3,386.0 L666.4,386.1 L668.5,386.2 L670.7,386.3 L672.8,386.3 L674.9,386.4 L677.1,386.5 L679.2,386.5 L681.3,386.5 L683.5,386.6 L685.6,386.6 L687.7,386.6 L689.9,386.7 L692.0,386.7 L694.1,386.7 L696.3,388.0 L698.4,384.0 L700.5,380.0 L702.7,376.0 L704.8,372.0 L706.9,368.0 L709.1,364.0 L711.2,360.0 L713.3,356.0 L715.5,352.0 L717.6,352.0 L719.7,352.0"/>
<circle class="hit" cx="45.4" cy="339.2" r="6"><title>Step 960, 0.50B tokens: learning rate 1.98e-04</title></circle>
<circle class="hit" cx="56.0" cy="342.3" r="6"><title>Step 1010, 0.53B tokens: learning rate 1.86e-04</title></circle>
<circle class="hit" cx="66.7" cy="345.4" r="6"><title>Step 1060, 0.56B tokens: learning rate 1.75e-04</title></circle>
<circle class="hit" cx="77.4" cy="348.6" r="6"><title>Step 1110, 0.58B tokens: learning rate 1.63e-04</title></circle>
<circle class="hit" cx="88.0" cy="351.7" r="6"><title>Step 1160, 0.61B tokens: learning rate 1.51e-04</title></circle>
<circle class="hit" cx="98.7" cy="354.8" r="6"><title>Step 1210, 0.63B tokens: learning rate 1.39e-04</title></circle>
<circle class="hit" cx="109.4" cy="357.9" r="6"><title>Step 1260, 0.66B tokens: learning rate 1.28e-04</title></circle>
<circle class="hit" cx="120.0" cy="360.8" r="6"><title>Step 1310, 0.69B tokens: learning rate 1.17e-04</title></circle>
<circle class="hit" cx="130.7" cy="363.7" r="6"><title>Step 1360, 0.71B tokens: learning rate 1.06e-04</title></circle>
<circle class="hit" cx="141.4" cy="366.5" r="6"><title>Step 1410, 0.74B tokens: learning rate 9.57e-05</title></circle>
<circle class="hit" cx="152.1" cy="369.1" r="6"><title>Step 1460, 0.77B tokens: learning rate 8.58e-05</title></circle>
<circle class="hit" cx="162.7" cy="371.6" r="6"><title>Step 1510, 0.79B tokens: learning rate 7.66e-05</title></circle>
<circle class="hit" cx="173.4" cy="373.9" r="6"><title>Step 1560, 0.82B tokens: learning rate 6.81e-05</title></circle>
<circle class="hit" cx="184.1" cy="375.9" r="6"><title>Step 1610, 0.84B tokens: learning rate 6.02e-05</title></circle>
<circle class="hit" cx="194.7" cy="377.8" r="6"><title>Step 1660, 0.87B tokens: learning rate 5.32e-05</title></circle>
<circle class="hit" cx="205.4" cy="379.5" r="6"><title>Step 1710, 0.90B tokens: learning rate 4.70e-05</title></circle>
<circle class="hit" cx="216.1" cy="380.9" r="6"><title>Step 1760, 0.92B tokens: learning rate 4.18e-05</title></circle>
<circle class="hit" cx="226.8" cy="382.0" r="6"><title>Step 1810, 0.95B tokens: learning rate 3.74e-05</title></circle>
<circle class="hit" cx="237.4" cy="382.9" r="6"><title>Step 1860, 0.98B tokens: learning rate 3.41e-05</title></circle>
<circle class="hit" cx="248.1" cy="383.5" r="6"><title>Step 1910, 1.00B tokens: learning rate 3.17e-05</title></circle>
<circle class="hit" cx="258.8" cy="383.9" r="6"><title>Step 1960, 1.03B tokens: learning rate 3.03e-05</title></circle>
<circle class="hit" cx="269.4" cy="386.7" r="6"><title>Step 2010, 1.05B tokens: learning rate 2.00e-05</title></circle>
<circle class="hit" cx="280.1" cy="360.0" r="6"><title>Step 2060, 1.08B tokens: learning rate 1.20e-04</title></circle>
<circle class="hit" cx="290.8" cy="338.7" r="6"><title>Step 2110, 1.11B tokens: learning rate 2.00e-04</title></circle>
<circle class="hit" cx="301.4" cy="338.8" r="6"><title>Step 2160, 1.13B tokens: learning rate 2.00e-04</title></circle>
<circle class="hit" cx="312.1" cy="339.1" r="6"><title>Step 2210, 1.16B tokens: learning rate 1.99e-04</title></circle>
<circle class="hit" cx="322.8" cy="339.5" r="6"><title>Step 2260, 1.18B tokens: learning rate 1.97e-04</title></circle>
<circle class="hit" cx="333.5" cy="340.1" r="6"><title>Step 2310, 1.21B tokens: learning rate 1.95e-04</title></circle>
<circle class="hit" cx="344.1" cy="340.8" r="6"><title>Step 2360, 1.24B tokens: learning rate 1.92e-04</title></circle>
<circle class="hit" cx="354.8" cy="341.7" r="6"><title>Step 2410, 1.26B tokens: learning rate 1.89e-04</title></circle>
<circle class="hit" cx="365.5" cy="342.8" r="6"><title>Step 2460, 1.29B tokens: learning rate 1.85e-04</title></circle>
<circle class="hit" cx="376.1" cy="343.9" r="6"><title>Step 2510, 1.32B tokens: learning rate 1.80e-04</title></circle>
<circle class="hit" cx="386.8" cy="345.3" r="6"><title>Step 2560, 1.34B tokens: learning rate 1.75e-04</title></circle>
<circle class="hit" cx="397.5" cy="346.7" r="6"><title>Step 2610, 1.37B tokens: learning rate 1.70e-04</title></circle>
<circle class="hit" cx="408.2" cy="348.2" r="6"><title>Step 2660, 1.39B tokens: learning rate 1.64e-04</title></circle>
<circle class="hit" cx="418.8" cy="349.8" r="6"><title>Step 2710, 1.42B tokens: learning rate 1.58e-04</title></circle>
<circle class="hit" cx="429.5" cy="351.6" r="6"><title>Step 2760, 1.45B tokens: learning rate 1.52e-04</title></circle>
<circle class="hit" cx="440.2" cy="353.4" r="6"><title>Step 2810, 1.47B tokens: learning rate 1.45e-04</title></circle>
<circle class="hit" cx="450.8" cy="355.2" r="6"><title>Step 2860, 1.50B tokens: learning rate 1.38e-04</title></circle>
<circle class="hit" cx="461.5" cy="357.1" r="6"><title>Step 2910, 1.53B tokens: learning rate 1.31e-04</title></circle>
<circle class="hit" cx="472.2" cy="359.1" r="6"><title>Step 2960, 1.55B tokens: learning rate 1.23e-04</title></circle>
<circle class="hit" cx="482.9" cy="361.0" r="6"><title>Step 3010, 1.58B tokens: learning rate 1.16e-04</title></circle>
<circle class="hit" cx="493.5" cy="363.0" r="6"><title>Step 3060, 1.60B tokens: learning rate 1.09e-04</title></circle>
<circle class="hit" cx="504.2" cy="365.0" r="6"><title>Step 3110, 1.63B tokens: learning rate 1.01e-04</title></circle>
<circle class="hit" cx="514.9" cy="367.0" r="6"><title>Step 3160, 1.66B tokens: learning rate 9.39e-05</title></circle>
<circle class="hit" cx="525.5" cy="368.9" r="6"><title>Step 3210, 1.68B tokens: learning rate 8.66e-05</title></circle>
<circle class="hit" cx="536.2" cy="370.8" r="6"><title>Step 3260, 1.71B tokens: learning rate 7.95e-05</title></circle>
<circle class="hit" cx="546.9" cy="372.6" r="6"><title>Step 3310, 1.74B tokens: learning rate 7.26e-05</title></circle>
<circle class="hit" cx="557.5" cy="374.4" r="6"><title>Step 3360, 1.76B tokens: learning rate 6.60e-05</title></circle>
<circle class="hit" cx="568.2" cy="376.1" r="6"><title>Step 3410, 1.79B tokens: learning rate 5.97e-05</title></circle>
<circle class="hit" cx="578.9" cy="377.7" r="6"><title>Step 3460, 1.81B tokens: learning rate 5.37e-05</title></circle>
<circle class="hit" cx="589.6" cy="379.2" r="6"><title>Step 3510, 1.84B tokens: learning rate 4.81e-05</title></circle>
<circle class="hit" cx="600.2" cy="380.6" r="6"><title>Step 3560, 1.87B tokens: learning rate 4.29e-05</title></circle>
<circle class="hit" cx="610.9" cy="381.8" r="6"><title>Step 3610, 1.89B tokens: learning rate 3.82e-05</title></circle>
<circle class="hit" cx="621.6" cy="383.0" r="6"><title>Step 3660, 1.92B tokens: learning rate 3.39e-05</title></circle>
<circle class="hit" cx="632.2" cy="383.9" r="6"><title>Step 3710, 1.95B tokens: learning rate 3.02e-05</title></circle>
<circle class="hit" cx="642.9" cy="384.8" r="6"><title>Step 3760, 1.97B tokens: learning rate 2.71e-05</title></circle>
<circle class="hit" cx="653.6" cy="385.5" r="6"><title>Step 3810, 2.00B tokens: learning rate 2.45e-05</title></circle>
<circle class="hit" cx="664.3" cy="386.0" r="6"><title>Step 3860, 2.02B tokens: learning rate 2.24e-05</title></circle>
<circle class="hit" cx="674.9" cy="386.4" r="6"><title>Step 3910, 2.05B tokens: learning rate 2.10e-05</title></circle>
<circle class="hit" cx="685.6" cy="386.6" r="6"><title>Step 3960, 2.08B tokens: learning rate 2.02e-05</title></circle>
<circle class="hit" cx="696.3" cy="388.0" r="6"><title>Step 4010, 2.10B tokens: learning rate 1.50e-05</title></circle>
<circle class="hit" cx="706.9" cy="368.0" r="6"><title>Step 4060, 2.13B tokens: learning rate 9.00e-05</title></circle>
<circle class="hit" cx="717.6" cy="352.0" r="6"><title>Step 4110, 2.15B tokens: learning rate 1.50e-04</title></circle>
<text class="tick" x="44.0" y="412" text-anchor="middle">0.5B</text>
<text class="tick" x="247.5" y="412" text-anchor="middle">1.0B</text>
<text class="tick" x="451.1" y="412" text-anchor="middle">1.5B</text>
<text class="tick" x="654.6" y="412" text-anchor="middle">2.0B</text>
<text class="axis-label" x="736" y="430" text-anchor="end">training tokens</text>
</svg>
